<svg id="Layer_1" enable-background="new 0 0 509.753 509.753" height="512" viewBox="0 0 509.753 509.753" width="512" xmlns="http://www.w3.org/2000/svg"><path d="m312.952 41.164 39.759 9.062c-2.514-27.291-25.256-48.044-52.293-48.434 10.529 9.721 15.714 24.452 12.534 39.372z"/><path d="m294.42 82.544c-9.409 7.507-21.976 10.851-34.544 8.222 10.628 11.83 26.4 18.816 43.491 17.603 24.572-1.744 44.061-19.865 48.584-42.932l-42.161-9.609c-.503 1.324-1.632 15.755-15.37 26.716z"/><path d="m393.421 128.571c-14.505-4.087-29.573 4.355-33.661 18.859l-35.419 125.67 17.351-103.276c3.327-19.796-10.229-39.791-32.839-41.93l-63.116-5.971c-18.822-1.781-35.994 11.254-39.12 29.9l-10.722 64.322 23.224-1.404 31.402-29.458-29.825 44.899-85.591 5.174c-13.361.808-24.102 12.426-23.209 25.782.879 13.139 12.186 23.322 25.583 22.518l98.153-5.933c7.568-.458 14.484-4.439 18.681-10.756l36.487-54.927-23.57 63.508c-3.758 10.125-13.057 16.582-23.184 17.209l-102.16 9.742c-13.42 1.28-24.313 11.076-26.073 24.849l-19.129 149.71c-2.217 17.349 11.3 32.694 28.816 32.694 14.385 0 26.872-10.693 28.743-25.339l12.793-100.126h66.34v65.776c-35.444 6.282-64.108 28.129-75.21 45.808-3.783 6.025.579 13.857 7.693 13.857h174.718c7.114 0 11.476-7.832 7.693-13.857-11.102-17.68-39.766-39.527-75.211-45.808v-65.776h55.98c12.218 0 22.945-8.122 26.26-19.882l56.98-202.174c4.088-14.502-4.356-29.573-18.858-33.66z"/><path d="m236.611 69.843 26.167 6.212c14.471 3.121 28.623-6.114 31.718-20.461l3.773-17.489c3.108-14.409-6.052-28.609-20.461-31.718l-26.167-6.212c-4.173-.9-8.238 1.768-9.127 5.888l-11.79 54.653c-.895 4.146 1.741 8.233 5.887 9.127z"/></svg>