<svg id="Capa_1" enable-background="new 0 0 512.708 512.708" height="512" viewBox="0 0 512.708 512.708" width="512" xmlns="http://www.w3.org/2000/svg"><g><path d="m110.442 392.258v90.096h-30.036v30h351.896v-30h-30.036v-90.096zm60.036 30.048h171.752v30h-171.752z"/><path d="m437.339 216.355c45.584-45.585 72.126-106.09 74.735-170.369l.633-15.608h-60.402v4.992c0 8.471-.541 16.817-1.589 25.008h30.209c-5.596 50.86-28.272 98.237-64.799 134.764-31.902 31.902-71.297 53.028-114.749 61.723v-30.771c-14.462 3.413-29.534 5.228-45.024 5.228s-30.562-1.815-45.024-5.228v30.771c-43.452-8.694-82.846-29.821-114.749-61.722-36.527-36.527-59.203-83.905-64.799-134.765h30.209c-1.048-8.19-1.589-16.537-1.589-25.008v-4.992h-60.401l.633 15.608c2.609 64.279 29.151 124.784 74.735 170.37 37.579 37.577 84.359 61.959 135.961 71.031v74.871h90.048v-74.871c51.603-9.072 98.384-33.454 135.962-71.032z"/><path d="m422.306.354h-331.904v35.016c0 91.506 74.446 165.952 165.952 165.952s165.952-74.446 165.952-165.952z"/></g></svg>